<?xml version="1.0" encoding="utf-8"?>
<!-- Generator: Adobe Illustrator 18.1.1, SVG Export Plug-In . SVG Version: 6.00 Build 0)  -->
<!DOCTYPE svg PUBLIC "-//W3C//DTD SVG 1.1//EN" "http://www.w3.org/Graphics/SVG/1.1/DTD/svg11.dtd">
<svg version="1.1" id="Layer_1" xmlns="http://www.w3.org/2000/svg" xmlns:xlink="http://www.w3.org/1999/xlink" x="0px" y="0px"
	 width="65px" height="65px" viewBox="0 0 65 65" enable-background="new 0 0 65 65" xml:space="preserve">
<path fill="#AFAEAA" d="M40,22v-2c-8.99,0-10.632,7.438-10.932,10.08C26.198,30.528,24,33.004,24,36c0,3.314,2.686,6,6,6
	s6-2.686,6-6c0-2.951-2.132-5.399-4.938-5.901C31.32,27.814,32.693,22,40,22z M34,36c0,2.206-1.794,4-4,4s-4-1.794-4-4
	c0-2.206,1.794-4,4-4S34,33.794,34,36z"/>
</svg>
