<?xml version="1.0" encoding="utf-8"?>
<!-- Generator: Adobe Illustrator 18.1.1, SVG Export Plug-In . SVG Version: 6.00 Build 0)  -->
<!DOCTYPE svg PUBLIC "-//W3C//DTD SVG 1.1//EN" "http://www.w3.org/Graphics/SVG/1.1/DTD/svg11.dtd">
<svg version="1.1" id="Layer_1" xmlns="http://www.w3.org/2000/svg" xmlns:xlink="http://www.w3.org/1999/xlink" x="0px" y="0px"
	 width="65px" height="65px" viewBox="0 0 65 65" enable-background="new 0 0 65 65" xml:space="preserve">
<path fill="#AFAEAA" d="M46.216,31.768l1,1.732l-5.196,3l-1-1.732L46.216,31.768z M19.237,32.866l5.196,3l1-1.732l-5.196-3
	L19.237,32.866z M33.343,30.414l4.243,4.243L39,33.243L34.757,29L33.343,30.414z M27.172,35.086l1.414,1.414l4.243-4.243
	l-1.414-1.414L27.172,35.086z M36,24.268L35,26l5.196,3l1-1.732L36,24.268z M49.823,41.478L47,65H19l-2.823-23.522
	C13.154,40.336,11,37.423,11,34c0-4.418,3.582-8,8-8c0-3.314,2.686-6,6-6h3.537C27.584,18.938,27,17.539,27,16
	c0-2.996,2.198-5.472,5.068-5.92C32.368,7.438,34.01,0,43,0v2c-7.307,0-8.68,5.814-8.938,8.099C36.868,10.601,39,13.049,39,16
	c0,1.539-0.584,2.938-1.537,4H41c3.314,0,6,2.686,6,6c4.418,0,8,3.582,8,8C55,37.423,52.846,40.336,49.823,41.478z M33,20
	c2.206,0,4-1.794,4-4s-1.794-4-4-4s-4,1.794-4,4S30.794,20,33,20z M47,42H26.117l0.877,7.89l-1.987,0.221L24.105,42h-1.981
	l1.869,15.883l-1.986,0.233L20.111,42H19h-0.746l2.52,21h24.451l2.52-21H47z M53,34c0-3.308-2.692-6-6-6h-2v-2c0-2.206-1.794-4-4-4
	H25c-2.206,0-4,1.794-4,4v2h-2c-3.308,0-6,2.692-6,6s2.692,6,6,6h28C50.308,40,53,37.308,53,34z M30.63,25l-5.196,3l1,1.732l5.196-3
	L30.63,25z"/>
</svg>
