<?xml version="1.0" encoding="utf-8"?>
<!-- Generator: Adobe Illustrator 18.1.1, SVG Export Plug-In . SVG Version: 6.00 Build 0)  -->
<!DOCTYPE svg PUBLIC "-//W3C//DTD SVG 1.1//EN" "http://www.w3.org/Graphics/SVG/1.1/DTD/svg11.dtd">
<svg version="1.1" id="Layer_1" xmlns="http://www.w3.org/2000/svg" xmlns:xlink="http://www.w3.org/1999/xlink" x="0px" y="0px"
	 viewBox="0 0 65 65" enable-background="new 0 0 65 65" xml:space="preserve">
<path d="M30.757,19.258C31.784,23.688,35.762,27,40.5,27c2.206,0,4,1.794,4,4v2h2c3.308,0,6,2.692,6,6s-2.692,6-6,6
	h-28c-3.308,0-6-2.692-6-6s2.692-6,6-6h2v-2c0-2.206,1.794-4,4-4h2v-2C26.5,22.298,28.296,20.007,30.757,19.258 M32.5,17
	c-4.418,0-8,3.582-8,8c-3.314,0-6,2.686-6,6c-4.418,0-8,3.582-8,8c0,4.418,3.582,8,8,8h28c4.418,0,8-3.582,8-8c0-4.418-3.582-8-8-8
	c0-3.314-2.686-6-6-6C36.082,25,32.5,21.418,32.5,17L32.5,17z"/>
</svg>
