<?xml version="1.0" encoding="utf-8"?>
<!-- Generator: Adobe Illustrator 18.1.1, SVG Export Plug-In . SVG Version: 6.00 Build 0)  -->
<!DOCTYPE svg PUBLIC "-//W3C//DTD SVG 1.1//EN" "http://www.w3.org/Graphics/SVG/1.1/DTD/svg11.dtd">
<svg version="1.1" id="Layer_1" xmlns="http://www.w3.org/2000/svg" xmlns:xlink="http://www.w3.org/1999/xlink" x="0px" y="0px"
	 viewBox="0 0 65 65" enable-background="new 0 0 65 65" xml:space="preserve">
<path d="M26.586,25.172l4.243,4.243l-1.414,1.414l-4.243-4.243L26.586,25.172z M22.098,38.634l-5.196,3l1,1.732
	l5.196-3L22.098,38.634z M39.634,26.902l-3,5.196l1.732,1l3-5.196L39.634,26.902z M27.634,36.902l-3,5.196l1.732,1l3-5.196
	L27.634,36.902z M40.414,35.172l-4.243,4.243l1.414,1.414l4.243-4.243L40.414,35.172z M36.414,21.172l-4.243,4.243l1.414,1.414
	l4.243-4.243L36.414,21.172z M23.308,36.147l1.334-5.85l-1.95-0.445l-1.334,5.85L23.308,36.147z M30.902,41.366l5.196,3l1-1.732
	l-5.196-3L30.902,41.366z M35,33h-6v2h6V33z M48,41h-6v2h6V41z"/>
</svg>
