<?xml version="1.0" encoding="utf-8"?>
<!-- Generator: Adobe Illustrator 18.1.1, SVG Export Plug-In . SVG Version: 6.00 Build 0)  -->
<!DOCTYPE svg PUBLIC "-//W3C//DTD SVG 1.1//EN" "http://www.w3.org/Graphics/SVG/1.1/DTD/svg11.dtd">
<svg version="1.1" id="Layer_1" xmlns="http://www.w3.org/2000/svg" xmlns:xlink="http://www.w3.org/1999/xlink" x="0px" y="0px"
	 width="300px" height="240px" viewBox="0 0 300 240" enable-background="new 0 0 300 240" xml:space="preserve">
<g>
	<path fill="#18140C" d="M123,186.913h30c8.271,0,15-6.729,15-15v-9c2.499,0,6.34-0.683,9-2.78c2.66,2.098,6.501,2.78,9,2.78h6v-3
		c0-9.278-3.379-12.82-6-14.168v-3.832c0-8.271-6.729-15-15-15h-48c-8.271,0-15,6.729-15,15v30
		C108,180.183,114.73,186.913,123,186.913z M150,132.913h6c0,6.087-2.991,9.072-6,10.55V132.913z M138,132.913h6v12h-6V132.913z
		 M126,132.913h6v12h-6V132.913z M114,141.913c0-3.906,2.516-7.205,6-8.447v11.447h-6V141.913z M114,150.913h30
		c6.226,0,18-3.762,18-18h9c4.963,0,9,4.037,9,9v8.994h2.833c0.914,0.123,2.505,1.582,3.009,6c-0.973-0.05-5.842-0.431-5.842-2.994
		h-6c0,2.569-4.894,2.944-5.842,2.994c0.504-4.418,1.928-5.877,2.842-6v-5.994c-0.368,0-9,0.17-9,15v12c0,4.963-4.037,9-9,9h-30
		c-4.963,0-9-4.037-9-9V150.913z M138,162.913h-6v-6h6V162.913z M126,162.913h-6v-6h6V162.913z"/>
	<g>
		<path fill="#18140C" d="M116.25,100.396v3.69h-5.444V71.237h5.444v13.049c1.755-2.475,4.23-4.455,8.055-4.455
			c5.625,0,11.07,4.455,11.07,12.33v0.09c0,7.875-5.4,12.33-11.07,12.33C120.391,104.581,117.915,102.601,116.25,100.396z
			 M129.84,92.251v-0.09c0-4.59-3.104-7.605-6.795-7.605c-3.689,0-6.93,3.06-6.93,7.605v0.09c0,4.59,3.24,7.604,6.93,7.604
			C126.78,99.856,129.84,96.931,129.84,92.251z"/>
		<path fill="#18140C" d="M139.651,92.296v-0.09c0-6.795,4.814-12.375,11.609-12.375c7.56,0,11.385,5.939,11.385,12.779
			c0,0.495-0.045,0.99-0.091,1.53h-17.459c0.585,3.87,3.33,6.03,6.84,6.03c2.655,0,4.545-0.99,6.435-2.834l3.195,2.834
			c-2.25,2.7-5.355,4.455-9.72,4.455C144.961,104.626,139.651,99.631,139.651,92.296z M157.245,90.542
			c-0.359-3.51-2.43-6.255-6.029-6.255c-3.33,0-5.67,2.565-6.165,6.255H157.245z"/>
		<path fill="#18140C" d="M168.135,80.327h5.444v3.689c1.53-2.25,3.735-4.185,7.425-4.185c5.355,0,8.46,3.6,8.46,9.135v15.119
			h-5.444v-13.5c0-3.69-1.846-5.805-5.085-5.805c-3.15,0-5.355,2.205-5.355,5.895v13.41h-5.444V80.327z"/>
	</g>
</g>
</svg>
